<svg width="20" height="20" viewBox="0 0 24 24" fill="none" xmlns="http://www.w3.org/2000/svg"><path d="M16.4997 13.1246C16.4997 13.3471 16.4337 13.5646 16.3101 13.7496C16.1865 13.9346 16.0108 14.0788 15.8052 14.1639C15.5996 14.2491 15.3734 14.2714 15.1552 14.2279C14.937 14.1845 14.7365 14.0774 14.5792 13.9201C14.4218 13.7627 14.3147 13.5623 14.2713 13.344C14.2279 13.1258 14.2502 12.8996 14.3353 12.694C14.4205 12.4885 14.5647 12.3128 14.7497 12.1892C14.9347 12.0655 15.1522 11.9996 15.3747 11.9996C15.673 11.9996 15.9592 12.1181 16.1702 12.3291C16.3811 12.54 16.4997 12.8262 16.4997 13.1246ZM11.9997 8.62456C11.9997 8.40205 11.9337 8.18455 11.8101 7.99954C11.6865 7.81454 11.5108 7.67034 11.3052 7.58519C11.0996 7.50005 10.8734 7.47777 10.6552 7.52118C10.437 7.56458 10.2365 7.67173 10.0792 7.82906C9.92184 7.9864 9.8147 8.18685 9.77129 8.40508C9.72788 8.62331 9.75016 8.84951 9.83531 9.05508C9.92046 9.26064 10.0647 9.43635 10.2497 9.55996C10.4347 9.68358 10.6522 9.74956 10.8747 9.74956C11.173 9.74956 11.4592 9.63103 11.6702 9.42005C11.8811 9.20908 11.9997 8.92293 11.9997 8.62456ZM18.8434 5.06206C17.036 3.30485 14.6183 2.31595 12.0975 2.30287C9.57672 2.28978 7.14885 3.25352 5.3233 4.99187C3.49775 6.73021 2.41642 9.10805 2.30621 11.6265C2.19599 14.1449 3.06546 16.6081 4.73217 18.4992C4.79735 18.5744 4.87682 18.6359 4.96598 18.68C5.05514 18.7242 5.15219 18.7502 5.25149 18.7565C5.35078 18.7628 5.45034 18.7492 5.54435 18.7167C5.63837 18.6841 5.72496 18.6332 5.7991 18.5668C5.87323 18.5004 5.93342 18.42 5.97616 18.3301C6.01889 18.2403 6.04333 18.1428 6.04804 18.0435C6.05274 17.9441 6.03763 17.8447 6.00357 17.7513C5.96952 17.6578 5.9172 17.572 5.84967 17.4989C4.78804 16.3118 4.09269 14.8429 3.84754 13.2693C3.60239 11.6957 3.81792 10.0848 4.46812 8.63103C5.11833 7.17726 6.17541 5.94274 7.51177 5.0765C8.84813 4.21026 10.4066 3.74932 11.9992 3.74932C13.5918 3.74932 15.1503 4.21026 16.4866 5.0765C17.823 5.94274 18.8801 7.17726 19.5303 8.63103C20.1805 10.0848 20.396 11.6957 20.1509 13.2693C19.9057 14.8429 19.2104 16.3118 18.1487 17.4989C18.0161 17.6472 17.9478 17.8422 17.9589 18.0409C17.9699 18.2395 18.0595 18.4257 18.2078 18.5583C18.3561 18.691 18.551 18.7593 18.7497 18.7482C18.9484 18.7371 19.1345 18.6476 19.2672 18.4992C20.9345 16.6331 21.8204 14.1972 21.7415 11.6959C21.6626 9.19466 20.625 6.81948 18.8434 5.06206ZM14.2497 15.7496H12.7497C10.7115 15.7496 8.24967 14.0771 8.24967 11.9996C8.24988 11.7898 8.26712 11.5803 8.30124 11.3733C8.31849 11.2757 8.31624 11.1757 8.29462 11.079C8.273 10.9824 8.23244 10.8909 8.17528 10.81C8.11811 10.7291 8.04548 10.6603 7.96158 10.6076C7.87768 10.5549 7.78417 10.5193 7.68645 10.503C7.58873 10.4866 7.48874 10.4898 7.39226 10.5123C7.29577 10.5348 7.20471 10.5762 7.12432 10.6342C7.04393 10.6921 6.97581 10.7653 6.9239 10.8497C6.87198 10.9341 6.8373 11.0279 6.82186 11.1258C6.77386 11.4146 6.74972 11.7068 6.74967 11.9996C6.74967 13.3946 7.44905 14.7305 8.71842 15.7636C9.88092 16.7077 11.35 17.2496 12.7497 17.2496H14.2497C14.4486 17.2496 14.6394 17.3286 14.78 17.4692C14.9207 17.6099 14.9997 17.8006 14.9997 17.9996C14.9997 18.1985 14.9207 18.3892 14.78 18.5299C14.6394 18.6705 14.4486 18.7496 14.2497 18.7496H8.99967C8.40294 18.7496 7.83064 18.9866 7.40868 19.4086C6.98673 19.8305 6.74967 20.4028 6.74967 20.9996C6.74967 21.5963 6.98673 22.1686 7.40868 22.5905C7.83064 23.0125 8.40294 23.2496 8.99967 23.2496C9.19858 23.2496 9.38935 23.1705 9.53 23.0299C9.67065 22.8892 9.74967 22.6985 9.74967 22.4996C9.74967 22.3006 9.67065 22.1099 9.53 21.9692C9.38935 21.8286 9.19858 21.7496 8.99967 21.7496C8.80076 21.7496 8.60999 21.6705 8.46934 21.5299C8.32869 21.3892 8.24967 21.1985 8.24967 20.9996C8.24967 20.8006 8.32869 20.6099 8.46934 20.4692C8.60999 20.3286 8.80076 20.2496 8.99967 20.2496H14.2497C14.8464 20.2496 15.4187 20.0125 15.8407 19.5905C16.2626 19.1686 16.4997 18.5963 16.4997 17.9996C16.4997 17.4028 16.2626 16.8305 15.8407 16.4086C15.4187 15.9866 14.8464 15.7496 14.2497 15.7496Z" fill="#000000"/></svg>
