<svg width="24" height="24" viewBox="0 0 24 24" fill="none" xmlns="http://www.w3.org/2000/svg">
    <path d="M20 15.6818V11.1878C20 7.32802 20 5.39814 18.8284 4.19907C17.6569 3 15.7712 3 12 3C8.22876 3 6.34315 3 5.17157 4.19907C4 5.39814 4 7.32802 4 11.1878V15.6818C4 18.4687 4 19.8622 4.65254 20.4711C4.96375 20.7615 5.35658 20.9439 5.77504 20.9924C6.65246 21.094 7.6771 20.1764 9.72636 18.3412C10.6322 17.53 11.0851 17.1244 11.6091 17.0176C11.8672 16.9649 12.1328 16.9649 12.3909 17.0176C12.9149 17.1244 13.3678 17.53 14.2736 18.3412C16.3229 20.1764 17.3475 21.094 18.225 20.9924C18.6434 20.9439 19.0363 20.7615 19.3475 20.4711C20 19.8622 20 18.4687 20 15.6818Z" stroke="currentColor" stroke-width="1.5"/>
    <path d="M15 7H9" stroke="currentColor" stroke-width="2" stroke-linecap="round"/>
</svg>
